<?xml version="1.0" encoding="utf-8"?>
<!-- Generator: Adobe Illustrator 16.0.4, SVG Export Plug-In . SVG Version: 6.00 Build 0)  -->
<!DOCTYPE svg PUBLIC "-//W3C//DTD SVG 1.1//EN" "http://www.w3.org/Graphics/SVG/1.1/DTD/svg11.dtd">
<svg version="1.1" id="Layer_1" xmlns="http://www.w3.org/2000/svg" xmlns:xlink="http://www.w3.org/1999/xlink" x="0px" y="0px"
	 width="24px" height="25px" viewBox="0 0 18.93 19.697" enable-background="new 0 0 18.93 19.697" xml:space="preserve">
<path fill="#707070" d="M17.77,3.764h-2.058V1.16c0-0.64-0.521-1.16-1.159-1.16H4.378c-0.639,0-1.16,0.52-1.16,1.16v2.604H1.161
	C0.521,3.764,0,4.284,0,4.924v6.987c0,0.641,0.521,1.161,1.161,1.161h2.057v5.466c0,0.639,0.521,1.159,1.16,1.159h10.175
	c0.639,0,1.159-0.521,1.159-1.159v-5.466h2.058c0.64,0,1.16-0.521,1.16-1.161V4.924C18.93,4.284,18.409,3.764,17.77,3.764
	 M13.911,17.896H5.02V9.815l8.861,0.023l0.03,0.037V17.896z M5.036,6.023L5.02,1.801h8.891v4.222H5.036z"/>
<path fill="#707070" d="M11.689,11.413H7.242c-0.47,0-0.85,0.381-0.85,0.851c0,0.469,0.38,0.849,0.85,0.849h4.448
	c0.469,0,0.85-0.38,0.85-0.849C12.539,11.793,12.158,11.413,11.689,11.413"/>
<path fill="#707070" d="M11.689,14.315H7.242c-0.47,0-0.85,0.379-0.85,0.85c0,0.469,0.38,0.85,0.85,0.85h4.448
	c0.469,0,0.85-0.381,0.85-0.85C12.539,14.694,12.158,14.315,11.689,14.315"/>
</svg>
