<?xml version="1.0" encoding="utf-8"?>
<!-- Generator: Adobe Illustrator 21.0.0, SVG Export Plug-In . SVG Version: 6.00 Build 0)  -->
<svg version="1.1" id="Layer_1" xmlns="http://www.w3.org/2000/svg" xmlns:xlink="http://www.w3.org/1999/xlink" x="0px" y="0px"
	 viewBox="0 0 37 35" style="enable-background:new 0 0 37 35;" xml:space="preserve">
<style type="text/css">
	.st0{fill:#5DA9DD;}
</style>
<path class="st0" d="M25.8,11.1c-2.5-2.9-8-0.9-7.1,3.8c-5.2-0.1-8.3-3.9-8.6-4.3c-1.7,3.1,0.8,5.2,1.3,5.6c-0.6-0.1-1.1-0.1-2-0.6
	c0.1,1.6,0.9,3.7,3.4,4.2c-0.4,0.1-1.5,0.2-1.9,0.1c0.6,2,2.6,2.9,3.9,2.9c-2.5,1.9-4.9,1.9-6.1,1.7c1.9,1.5,7,3.2,12.4,0.3
	c3.7-2,6.4-6.9,5.8-10.8c1-0.7,2-1.9,2.1-2.2c-1,0.4-1.7,0.6-2.4,0.6c0.7-0.3,1.6-1.4,1.8-2.3C27.3,10.8,26,11.1,25.8,11.1z"/>
</svg>
